<svg version="1.1" id="Layer_1" xmlns="http://www.w3.org/2000/svg" xmlns:xlink="http://www.w3.org/1999/xlink" x="0" y="0" viewBox="0 0 232.6 73.3" style="enable-background:new 0 0 232.6 73.3" xml:space="preserve"><style>.st0{fill:#fff;stroke:#333535;stroke-miterlimit:10}.st1{fill:#8a9ba5}.st2{fill:none;stroke:#8a9ba5;stroke-width:.47;stroke-linecap:round;stroke-linejoin:round;stroke-dasharray:0,0,0,1.43}.st10{font-family:&apos;Times-Roman&apos;}.st11{font-size:6.08px}.st12{fill:none;stroke:#8a9ba5;stroke-width:.47}.st13{fill:#fff}</style><path class="st0" d="M177.4 18.8c1.8 0 3.1 1.4 3.1 3.2v5.4c0 1.5-1.1 3.1-3.1 3.1h-3c-1 0-2.1.9-2.1 2.1V49c0 1.8-1.4 3.2-3.2 3.2h-5.3c-1.8 0-3.2-1.4-3.2-3.2V32.6c0-1.3-1.1-2.1-2.1-2.1h-3c-2 0-3.1-1.7-3.1-3.1V22c0-1.8 1.4-3.2 3.1-3.2h21.9zM138.1 18.8h5.3c1.8 0 3.2 1.4 3.2 3.2v44.4c0 1.8-1.4 3.2-3.2 3.2h-5.3c-1.8 0-3.2-1.4-3.2-3.2V22c0-1.8 1.5-3.2 3.2-3.2M117.2 40.4c0-1.1-.8-2.1-2.1-2.1h-9.9c-1.2 0-2.1.9-2.1 2.1v27c0 1.8-1.4 3.2-3.2 3.2h-5.3c-1.8 0-3.2-1.4-3.2-3.2V23c0-1.8 1.4-3.2 3.2-3.2h5.3c1.8 0 3.2 1.4 3.2 3.2v4.5c0 1.2.9 2.1 2.1 2.1h9.9c1.3 0 2.1-1 2.1-2.1V5.6c0-1.8 1.4-3.2 3.2-3.2h5.3c1.8 0 3.2 1.4 3.2 3.2V50c0 1.8-1.5 3.2-3.2 3.2h-5.3c-1.8 0-3.2-1.4-3.2-3.2v-9.6zM138.1 1.4h5.3c1.8 0 3.2 1.4 3.2 3.2v5.3c0 1.8-1.4 3.2-3.2 3.2h-5.3c-1.8 0-3.2-1.4-3.2-3.2V4.6c0-1.8 1.4-3.2 3.2-3.2M163.8 57.9h5.3c1.8 0 3.2 1.4 3.2 3.2v5.3c0 1.8-1.4 3.2-3.2 3.2h-5.3c-1.8 0-3.2-1.4-3.2-3.2v-5.3c0-1.8 1.4-3.2 3.2-3.2"/><path class="st0" d="M120.4 57.9h5.3c1.8 0 3.2 1.4 3.2 3.2v5.3c0 1.8-1.4 3.2-3.2 3.2h-5.3c-1.8 0-3.2-1.4-3.2-3.2v-5.3c0-1.8 1.4-3.2 3.2-3.2"/><path class="st1" d="M214.4 51.9c-.2-.1-.3-.1-.5-.1-.4 0-.7.1-1 .3-.3.2-.4.5-.4.9s.1.7.3.9c.2.2.5.3 1 .5.4.1.7.3.9.3l.3.3c.1.1.1.2.1.4s-.1.5-.3.6-.4.2-.7.2c-.4 0-.7-.2-.9-.5-.3-.3-.4-.7-.5-1.2h-.2l-.1 1.7h.2l.4-.4c.3.3.7.5 1.1.5.4 0 .8-.1 1.1-.3.3-.2.4-.6.5-1 0-.2 0-.4-.1-.6-.1-.2-.2-.3-.4-.5s-.5-.3-1-.4c-.3-.1-.6-.2-.7-.3l-.3-.3c-.1-.1-.1-.2-.1-.4s.1-.4.3-.5c.2-.1.4-.2.7-.2.3 0 .6.2.8.4s.4.6.4 1.1h.2l.1-1.6h-.2l-.3.4c-.4 0-.6-.1-.7-.2m-5.3 0c0-.1 0-.1.1-.2h.4c.4 0 .6.1.7.1l.3.3c.1.1.1.3.1.6s-.1.6-.4.7c-.2.1-.5.2-.8.1h-.5l.1-1.6zm-1.3-.3h.4c.1 0 .2 0 .2.1 0 0 .1.1.1.2l-.3 3.5c0 .1 0 .1-.1.2H207.5v.2l2.1.2v-.2h-.4c-.1 0-.2 0-.2-.1 0 0-.1-.1 0-.2l.1-1.7h.4c.2 0 .4.1.5.2l.3.3c.1.1.1.3.1.6 0 .5 0 .7.1.9 0 .2.1.3.2.3.1.1.2.1.4.1.5 0 .7-.3.8-1h-.2c0 .2-.1.4-.1.5s-.1.1-.2.1-.1 0-.2-.1-.1-.3-.1-.5c-.1-.4-.1-.6-.2-.7s-.1-.2-.2-.3c-.1-.1-.3-.2-.6-.3.4 0 .7 0 .9-.1.2-.1.3-.2.4-.3.1-.1.2-.3.2-.5 0-.3-.1-.6-.3-.8-.2-.2-.6-.3-1-.4l-2.3-.2h-.2zm-2 2.3-1.6-.1 1-1.9.6 2zm-2.2.8c-.1.2-.2.3-.3.4-.1.1-.2.1-.4.1v.2l1.6.1v-.2h-.1c-.2 0-.3-.1-.4-.2-.1-.1-.1-.2-.1-.3 0-.1 0-.2.1-.3l.2-.5 1.7.2.3 1v.1c0 .1 0 .1-.1.1h-.5v.2l1.8.2v-.2h-.1c-.2 0-.3-.1-.4-.3l-1.2-4.2h-.2l-1.9 3.6zm-4.4-3.9h.4c.1 0 .1 0 .2.1 0 0 .1.1.1.2l-.3 3.5c0 .1 0 .1-.1.2h-.5v.2l3.6.3.2-1.6h-.2c-.2.9-.7 1.4-1.4 1.3l-.7-.1c-.1 0-.2 0-.2-.1 0 0-.1-.1-.1-.2l.1-1.8h.4c.2 0 .4.1.5.3.1.2.2.4.1.7h.2l.2-2h-.2c0 .3-.1.5-.3.7-.1.1-.3.2-.5.2h-.4l.1-1.6c0-.1 0-.1.1-.2h.2l.9.1c.3 0 .5.1.6.3s.2.5.3 1h.2l.1-1.5-3.5-.3-.1.3zm-4.7-.4c.2 0 .3 0 .4.1.1 0 .1.1.2.2l1.2 2.2-.1 1.4c0 .1 0 .1-.1.2H195.5v.2l2 .2v-.2h-.4c-.1 0-.2 0-.2-.1 0 0-.1-.1-.1-.2l.1-1.4 1.2-1.8c.1-.2.2-.3.4-.3.1-.1.3-.1.5-.1v-.2l-1.7-.2v.2h.2c.1 0 .2 0 .3.1s.1.2.1.3c0 .1 0 .2-.1.2l-.9 1.4-1-1.8v-.1s0-.1.1-.1H196.6v-.2l-1.9-.2-.2.2z"/><path class="st2" d="M205.8 61.1c8.7 0 16.1-6.4 17.2-15.1M223.1 43.9c.1-8.7-6.4-16.1-15.1-17.2M205.9 26.6c-8.7 0-16.1 6.4-17.2 15.1M188.6 43.8c-.1 8.7 6.4 16.1 15.1 17.2"/><path d="M204.3 61.1h0m-15.7-18.8h0m18.7-15.7h0M223 45.4h0" style="fill:none;stroke:#8a9ba5;stroke-width:.47;stroke-linecap:round;stroke-linejoin:round"/><path style="fill:none" d="M0 0h232.6v73H0z"/><defs><path id="SVGID_1_" d="M185.2 42c-1 11.4 7.4 21.5 18.8 22.5s21.4-7.4 22.4-18.8-7.4-21.5-18.8-22.5c-.6 0-1.2-.1-1.8-.1-10.6 0-19.7 8.2-20.6 18.9"/></defs><clipPath id="SVGID_00000059289730071558358860000004365602128346388389_"><use xlink:href="#SVGID_1_" style="overflow:visible"/></clipPath><g style="clip-path:url(#SVGID_00000059289730071558358860000004365602128346388389_)"><path d="M204 65.3c11.8 1 22.3-7.7 23.3-19.5s-7.7-22.3-19.6-23.3c-11.8-1-22.3 7.7-23.3 19.5s7.8 22.2 19.6 23.3z" style="fill:none;stroke:#fff;stroke-width:.31"/><path d="M204.1 64c11.1 1 21-7.3 21.9-18.4 1-11.1-7.3-21-18.4-21.9-11.1-1-21 7.3-21.9 18.4-1 11.1 7.2 21 18.4 21.9z" style="fill:none;stroke:#fff;stroke-width:.94"/></g><path d="M204 65.3c11.8 1 22.3-7.7 23.3-19.5s-7.7-22.3-19.6-23.3c-11.8-1-22.3 7.7-23.3 19.5s7.8 22.2 19.6 23.3z" style="fill:none;stroke:#8a9ba5;stroke-width:.31"/><path d="M204.1 64c11.1 1 21-7.3 21.9-18.4 1-11.1-7.3-21-18.4-21.9-11.1-1-21 7.3-21.9 18.4-1 11.1 7.2 21 18.4 21.9z" style="fill:none;stroke:#8a9ba5;stroke-width:.94"/><path class="st1" d="M215.1 36.4c.5 1 .6 2.9.4 5.8-.2 2.7-.7 4.6-1.4 5.6-.6.8-1.3 1.2-2.3 1.1-.9-.1-1.6-.6-2.1-1.6s-.6-2.9-.3-5.7c.2-2.9.7-4.7 1.3-5.6.6-.9 1.4-1.3 2.4-1.2.8 0 1.5.6 2 1.6m-5.8-1c-1.2 1.4-1.9 3.4-2.2 5.9-.2 2.7.2 4.7 1.2 6.2.8 1.2 1.9 1.9 3.3 2 1.4.1 2.7-.4 3.8-1.7 1.1-1.2 1.8-3.1 2-5.7.2-2.7-.2-4.8-1.2-6.3-.8-1.2-2-1.8-3.4-2-1.3 0-2.5.5-3.5 1.6m-12.4.8-.5 3.2c0 .1-.1.2-.2.2-.3.3-.5.6-.5.9 0 .2 0 .3.1.4.1.1.2.2.3.2.2 0 .4 0 .5-.2.1-.2.3-.5.4-1 .5-.3.9-.5 1.4-.6s.9-.2 1.3-.1c.9.1 1.7.5 2.3 1.2.6.7.8 1.8.6 3.2-.1 1.5-.5 2.6-1.2 3.3-.6.6-1.5.9-2.6.8-.6 0-1.1-.2-1.5-.4s-.7-.5-.9-.8-.3-.6-.3-.8c0-.2.2-.3.5-.4s.6-.2.7-.4c.1-.2.2-.4.2-.7 0-.4-.1-.8-.3-1-.2-.3-.5-.4-.9-.5-.4 0-.7.1-1 .4-.3.3-.4.8-.5 1.3-.1 1 .2 1.9.9 2.6s1.7 1.2 3 1.3c1.6.1 3-.2 4.1-1.1 1.1-.9 1.7-2.1 1.9-3.7.1-1.4-.3-2.6-1.1-3.6s-2-1.6-3.4-1.7c-.4 0-.9 0-1.4.1-.5.1-1.1.2-1.6.5l.7-4.1c1.1.4 2.1.6 3 .7.7.1 1.4 0 2-.2s1.1-.5 1.4-.9.6-.7.6-1c0-.1 0-.2-.1-.2 0 0-.1 0-.2.1-.2.1-.6.2-1.1.3-.5.1-1 .1-1.5 0-1.1-.1-2.6-.4-4.4-1-.3 1.3-.5 2.5-.7 3.7"/><text transform="matrix(.9637 -.3636 .353 .9356 195.62 22.61)" class="st1 st10 st11">M</text><text transform="matrix(1.0156 -.1714 .1664 .9861 200.89 20.8)" class="st1 st10 st11">o</text><text transform="matrix(1.0276 -.07041 .06836 .9977 203.99 20.33)" class="st1 st10 st11">r</text><text transform="matrix(1.0295 .0329 -.03193 .9995 206.07 20.21)" class="st1 st10 st11">e</text><text transform="matrix(1.0013 .2415 -.2345 .9721 210.4 20.56)" class="st1 st10 st11">t</text><text transform="matrix(.9709 .344 -.334 .9426 212.12 20.88)" class="st1 st10 st11">h</text><text transform="matrix(.9299 .4429 -.43 .9028 215.09 21.91)" class="st1 st10 st11">a</text><text transform="matrix(.8792 .5366 -.521 .8536 217.59 23.11)" class="st1 st10 st11">n</text><path class="st12" d="M192.1 23.9c-5.8 4-9.8 10.4-10.4 17.9-.2 2.7 0 5.4.6 7.9"/><text transform="matrix(.4314 .9353 -.9081 .4188 181.11 54.06)" class="st1 st10 st11">o</text><text transform="matrix(.5184 .89 -.8641 .5033 182.45 56.89)" class="st1 st10 st11">f</text><text transform="matrix(.679 .7745 -.752 .6592 184.11 59.78)" class="st1 st10 st11">A</text><text transform="matrix(.7849 .667 -.6476 .762 187.09 63.19)" class="st1 st10 st11">c</text><text transform="matrix(.8471 .5859 -.5688 .8224 189.19 65.02)" class="st1 st10 st11">a</text><text transform="matrix(.9016 .4981 -.4836 .8753 191.47 66.62)" class="st1 st10 st11">d</text><text transform="matrix(.9473 .4044 -.3927 .9197 194.23 68.11)" class="st1 st10 st11">e</text><text transform="matrix(.9977 .2558 -.2484 .9687 196.78 69.24)" class="st1 st10 st11">m</text><text transform="matrix(1.0249 .1023 -.09932 .9951 201.52 70.35)" class="st1 st10 st11">i</text><text transform="matrix(1.0287 .05085 -.04937 .9988 203.26 70.53)" class="st1 st10 st11">c</text><text transform="matrix(1.0188 -.1517 .1473 .9891 207.61 70.56)" class="st1 st10 st11">E</text><text transform="matrix(.9861 -.2975 .2889 .9574 211.39 69.95)" class="st1 st10 st11">x</text><text transform="matrix(.9532 -.3903 .379 .9254 214.38 69.01)" class="st1 st10 st11">c</text><text transform="matrix(.8877 -.5225 .5072 .8618 216.96 67.96)" class="st1 st10 st11">e</text><text transform="matrix(.8618 -.5641 .5477 .8367 219.35 66.54)" class="st1 st10 st11">l</text><text transform="matrix(.8038 -.644 .6252 .7804 220.8 65.58)" class="st1 st10 st11">l</text><text transform="matrix(.738 -.7185 .6975 .7165 222.2 64.54)" class="st1 st10 st11">e</text><text transform="matrix(.6645 -.7869 .764 .6452 224.23 62.63)" class="st1 st10 st11">n</text><text transform="matrix(.584 -.8484 .8237 .567 226.24 60.22)" class="st1 st10 st11">c</text><text transform="matrix(.4967 -.9023 .8761 .4822 227.79 57.92)" class="st1 st10 st11">e</text><path class="st12" d="M228.7 52.1c.7-1.9 1.2-4 1.4-6.1.6-7.5-2.2-14.5-7.1-19.4"/><path class="st13" d="M60.9 28.1V20h-1.2v-2h3.4v10.1h-2.2zm4.8-1.9V20h-1.2v-2H68v8.2h-2.3zm9.7-3.5c0 1.8-1.2 3.5-2.9 3.5h-3v-2h2.3c.7 0 1.4-.9 1.4-1.6v-.8c0-.8-.7-1.6-1.4-1.6h-2.3v-2h3c1.7 0 2.9 1.7 2.9 3.5v1zm5.2 3.5v-2h1.6V21c0-.7-.3-1-.9-1H80l-1 6.2h-2.2l1.1-6.2h-1.3v-2h5.1c1.7 0 2.8 1.1 2.8 3v5.1l-3.9.1zM3 42.3v-8.1H1.8v-2h3.4v10.1H3zm4.8-1.9v-6.2H6.6v-2H10v8.2H7.8zm7.6 0h-2.2l2.1-6.2h-3.7v-4.1h2.2v2h4.4l-2.8 8.3zm4.7 0v-6.2h-1.2v-2h3.4v8.2h-2.2zm8.8 0v-5.2c0-.7-.3-1-.9-1h-1.6v6.2h-2.2v-8.2h4.2c1.7 0 2.8 1.1 2.8 3v5.2h-2.3zm8.5-3.6v-2.5h-1.2v-2h3.4v4.5h-2.2zm6.5 3.6-.2-2.2h-.1c-.5 1.2-1.2 2.4-2.5 2.5v-2.5c1.2-.2 2.4-1.1 2.4-2.5v-1.3h-1.9v-2h4l.3 8.2-2-.2zm4.5 0v-6.2h-1.2v-2h3.4v8.2h-2.2zm7.6 0h-2.2l2-6.2h-3.7v-4.1h2.2v2h4.4L56 40.4zm4.7 0v-6.2h-1.2v-2h3.4v8.2h-2.2zm3.7 0v-2h1.8v-4.1h-1.6v-2h3.9v8.2c0-.1-4.1-.1-4.1-.1zm11.5-3.5c0 1.8-1.2 3.5-2.9 3.5h-3v-2h2.3c.7 0 1.4-.9 1.4-1.7v-.8c0-.8-.7-1.7-1.4-1.7H70v-2h3c1.7 0 2.9 1.7 2.9 3.5v1.2zm4.5 3.5h-2.5l-.7-8.2h2.2l.5 6.2h.6c.3 0 .6-.1.9-.3.8-.5 1.1-1.6 1.1-2.6 0-.7-.2-1.4-1-1.4-.3 0-.6.1-.8.3v-2c.3-.2 1-.3 1.4-.3 1.7 0 2.7 1.3 2.7 3.1 0 2.9-1.7 5.2-4.4 5.2zM13.7 45.8v3.6h3v-3.6h1.7v9.4h-1.7v-4.1h-3.1v4.1h-1.7v-9.4h1.8zM19.8 50.4c.1-.4.3-.8.6-1.1.2-.3.5-.5.9-.7.3-.2.7-.3 1.2-.3s.8.1 1.2.3.6.4.9.7c.2.3.4.7.6 1.1s.2.9.2 1.5-.1 1-.2 1.5-.3.8-.6 1.1-.5.5-.9.7-.7.2-1.2.2-.8-.1-1.2-.2c-.4-.2-.6-.4-.9-.7s-.4-.7-.6-1.1-.2-.9-.2-1.5 0-1.1.2-1.5zm1.3 2.2c0 .3.1.5.2.7s.2.4.4.5c.2.1.4.2.6.2s.5-.1.6-.2c.2-.1.3-.3.4-.5s.2-.4.2-.7c0-.3.1-.5.1-.8s0-.5-.1-.8c0-.3-.1-.5-.2-.7-.1-.2-.2-.4-.4-.5s-.4-.2-.6-.2-.5.1-.6.2c-.2.1-.3.3-.4.5-.1.2-.2.4-.2.7 0 .3-.1.5-.1.8s.1.6.1.8zM27.7 45.8v9.4h-1.5v-9.4h1.5zM29 50.4c.1-.4.3-.8.6-1.1.2-.3.5-.5.9-.7.3-.2.7-.3 1.2-.3s.8.1 1.2.3.7.4.9.7c.2.3.4.7.6 1.1s.2.9.2 1.5-.1 1-.2 1.5-.3.8-.6 1.1-.5.5-.9.7-.7.2-1.2.2-.8-.1-1.2-.2c-.4-.2-.6-.4-.9-.7s-.4-.7-.6-1.1-.2-.9-.2-1.5 0-1.1.2-1.5zm1.3 2.2c0 .3.1.5.2.7s.2.4.4.5c.2.1.4.2.6.2s.5-.1.6-.2c.2-.1.3-.3.4-.5s.2-.4.2-.7c0-.3.1-.5.1-.8s0-.5-.1-.8-.1-.5-.2-.7c-.1-.2-.2-.4-.4-.5s-.4-.2-.6-.2-.5.1-.6.2c-.2.1-.3.3-.4.5-.1.2-.2.4-.2.7 0 .3-.1.5-.1.8s.1.6.1.8zM36.8 48.4v1c.2-.4.4-.7.7-.9.3-.2.6-.3.9-.3.4 0 .7.1 1 .2.3.1.5.3.6.6s.2.5.3.9c.1.3.1.7.1 1.2v4.2H39v-3.9c0-.6-.1-1-.2-1.3s-.4-.4-.8-.4-.7.2-.9.5-.3.8-.3 1.5v3.6h-1.5v-6.8h1.5v-.1zM46.4 45.8v9.4h-1.7v-9.4h1.7zM49.1 48.4v1c.2-.4.4-.7.7-.9.3-.2.6-.3.9-.3.4 0 .7.1 1 .2.3.1.5.3.6.6s.2.5.3.9c.1.3.1.7.1 1.2v4.2h-1.5v-3.9c0-.6-.1-1-.2-1.3s-.4-.4-.8-.4-.7.2-.9.5-.3.8-.3 1.5v3.6h-1.5v-6.8h1.6v-.1zM55.2 53.6c.1.2.2.3.3.4.1.1.2.2.4.2s.3.1.4.1h.3c.1 0 .2-.1.3-.1.1-.1.2-.2.2-.3.1-.1.1-.2.1-.4 0-.3-.2-.5-.5-.6s-.7-.3-1.2-.4c-.2-.1-.4-.1-.6-.2-.2-.1-.4-.2-.5-.3-.2-.1-.3-.3-.4-.5s-.2-.5-.2-.8c0-.4.1-.8.2-1.1.1-.3.3-.5.5-.7.2-.2.5-.3.8-.3.3-.1.6-.1.9-.1s.6 0 .9.1.5.2.7.4c.2.2.4.4.5.7s.2.6.3 1h-1.4c0-.4-.1-.6-.3-.7s-.4-.2-.7-.2h-.3c-.1 0-.2 0-.3.1s-.2.1-.2.2-.1.2-.1.3c0 .2 0 .3.2.4s.2.2.4.3.3.1.5.2c.2 0 .4.1.6.2.2.1.4.1.6.2.2.1.4.2.5.3.2.2.3.3.4.5.1.2.2.5.2.8 0 .5-.1.8-.2 1.1-.1.3-.3.5-.6.7s-.5.3-.8.4c-.3.1-.6.1-.9.1s-.6 0-.9-.1c-.3-.1-.6-.2-.8-.4-.2-.2-.4-.4-.6-.7s-.2-.7-.2-1.1h1.4s0 .1.1.3zM62.6 48.4v1.2h-1.1V53c0 .3 0 .5.1.6.1.1.2.2.5.2h.4v1.5h-.9c-.2 0-.5 0-.7-.1s-.4-.1-.5-.2-.3-.3-.4-.5c.1-.2 0-.5 0-.8v-4h-.9v-1.2h.9v-2h1.5v2l1.1-.1zM63.4 47.4v-1.5h1.5v1.5h-1.5zm1.5 1v6.8h-1.5v-6.8h1.5zM69.1 48.4v1.2H68V53c0 .3 0 .5.1.6.1.1.2.2.5.2h.4v1.5h-.8c-.2 0-.4 0-.7-.1-.2 0-.4-.1-.6-.2s-.3-.3-.4-.5c-.1-.2-.1-.5-.1-.8v-4h-.9v-1.2h.9v-2H68v2l1.1-.1zM73.5 55.3v-1c-.2.4-.4.7-.7.9-.3.2-.6.3-.9.3-.4 0-.7-.1-1-.2-.3-.1-.5-.3-.6-.6s-.2-.5-.3-.9c-.1-.3-.1-.7-.1-1.2v-4.2h1.5v3.9c0 .6.1 1 .2 1.3s.4.4.8.4.7-.2.9-.5.3-.8.3-1.5v-3.6h1.5v6.8l-1.6.1zM79.1 48.4v1.2H78V53c0 .3 0 .5.1.6.1.1.2.2.5.2h.4v1.5h-.8c-.2 0-.4 0-.7-.1-.2 0-.4-.1-.6-.2s-.3-.3-.4-.5c-.1-.2-.1-.5-.1-.8v-4h-.9v-1.2h.9v-2H78v2l1.1-.1zM81.4 53.6c.2.3.6.4 1 .4.3 0 .6-.1.8-.3s.3-.4.4-.6h1.3c-.2.8-.5 1.4-1 1.8s-1 .5-1.6.5c-.4 0-.8-.1-1.2-.3s-.6-.4-.9-.7c-.2-.3-.4-.7-.6-1.1-.1-.4-.2-.9-.2-1.5s.1-1 .2-1.4.3-.8.6-1.1.5-.6.9-.8.7-.3 1.1-.3c.5 0 .9.1 1.2.3.3.2.6.5.8.9.2.4.4.8.5 1.3.1.5.1 1 .1 1.5H81c0 .7.2 1.1.4 1.4zm1.7-3.6c-.2-.2-.4-.4-.8-.4-.2 0-.4 0-.6.2-.2.1-.3.2-.4.4s-.2.3-.2.5-.1.3-.1.5h2.4c0-.6-.1-.9-.3-1.2zM15.5 64.2c.1-.4.3-.8.6-1.1.2-.3.5-.5.9-.7.3-.2.7-.3 1.2-.3s.8.1 1.2.3.6.4.9.7c.2.3.4.7.6 1.1.1.4.2.9.2 1.5s-.1 1-.2 1.5-.3.8-.6 1.1-.5.6-.9.7-.7.2-1.2.2-.8-.1-1.2-.2c-.4-.2-.6-.4-.9-.7s-.4-.7-.6-1.1-.2-.9-.2-1.5 0-1.1.2-1.5zm1.3 2.3c0 .3.1.5.2.7s.2.4.4.5c.2.1.4.2.6.2s.5-.1.6-.2c.2-.1.3-.3.4-.5s.2-.4.2-.7c0-.3.1-.5.1-.8s0-.5-.1-.8c0-.3-.1-.5-.2-.7-.1-.2-.2-.4-.4-.5s-.4-.2-.6-.2-.5.1-.6.2c-.2.1-.3.3-.4.5-.1.2-.2.4-.2.7 0 .3-.1.5-.1.8s.1.5.1.8zM21.3 63.5v-1.2h.9v-.5c0-.6.1-1.1.5-1.5.3-.4.8-.6 1.4-.6h.8v1.4h-.5c-.2 0-.4.1-.4.2s-.1.3-.1.6v.4h1v1.2h-1v5.6h-1.5v-5.6h-1.1zM27.9 61.4v-1.7h6.2v1.7h-2.3v7.7h-1.7v-7.7h-2.2zM35.2 67.4c.2.3.5.4 1 .4.3 0 .6-.1.8-.3s.3-.4.4-.6h1.3c-.2.8-.5 1.4-1 1.8s-1 .5-1.6.5c-.4 0-.8-.1-1.2-.3s-.6-.4-.9-.7c-.2-.3-.4-.7-.5-1.1s-.2-.9-.2-1.4.1-1 .2-1.4c.1-.4.3-.8.6-1.1s.5-.6.9-.8.7-.3 1.1-.3c.5 0 .9.1 1.2.3.3.2.6.5.8.9.2.4.4.8.5 1.3s.1 1 .1 1.5h-3.9c.1.6.2 1 .4 1.3zm1.7-3.6c-.2-.2-.5-.4-.8-.4-.2 0-.4 0-.6.2-.2.1-.3.2-.4.4-.1.1-.2.3-.2.5s-.1.3-.1.4h2.4c0-.5-.1-.8-.3-1.1zM42.3 63.5c-.2 0-.4.1-.6.2s-.3.3-.4.5c-.1.2-.2.4-.2.7s-.1.5-.1.8 0 .5.1.8c0 .3.1.5.2.7s.2.4.4.5c.2.1.4.2.6.2.4 0 .6-.1.8-.4s.3-.6.4-1H45c-.1.9-.4 1.6-.8 2.1-.5.5-1.1.7-1.8.7-.4 0-.8-.1-1.1-.3-.3-.2-.6-.4-.9-.7-.2-.3-.4-.7-.6-1.1s-.2-.9-.2-1.4.1-1 .2-1.5.3-.8.5-1.2c.2-.3.5-.6.9-.8.3-.2.7-.3 1.2-.3.3 0 .6 0 .9.2.3.1.6.3.8.5s.4.5.6.8c.2.3.2.7.2 1.1h-1.5c-.1-.8-.5-1.1-1.1-1.1zM47.2 59.6v3.5c.2-.4.4-.7.7-.9.3-.2.6-.3.9-.3.4 0 .7.1 1 .2.3.1.5.3.6.6s.2.5.3.9c.1.4.1.7.1 1.2V69h-1.5v-3.9c0-.6-.1-1-.2-1.3-.1-.3-.4-.4-.8-.4s-.7.2-.9.5c-.2.3-.3.8-.3 1.5V69h-1.5v-9.4h1.6zM53.4 62.2v1c.2-.4.4-.7.7-.9.3-.2.6-.3.9-.3.4 0 .7.1 1 .2.3.1.5.3.6.6s.2.5.3.9c.1.4.1.7.1 1.2v4.2h-1.5v-3.9c0-.6-.1-1-.2-1.3-.1-.3-.4-.4-.8-.4s-.7.2-.9.5c-.2.3-.3.8-.3 1.5v3.6H52v-6.8l1.4-.1zM58.3 64.2c.1-.4.3-.8.6-1.1.2-.3.5-.5.9-.7.3-.2.7-.3 1.2-.3s.8.1 1.2.3.7.4.9.7c.2.3.4.7.6 1.1.1.4.2.9.2 1.5s-.1 1-.2 1.5-.5.8-.7 1.1-.5.6-.9.7-.7.2-1.2.2-.8-.1-1.2-.2c-.3-.2-.6-.4-.9-.7s-.4-.7-.6-1.1-.2-.9-.2-1.5.2-1.1.3-1.5zm1.4 2.3c0 .3.1.5.2.7s.2.4.4.5c.2.1.4.2.6.2s.5-.1.6-.2c.2-.1.3-.3.4-.5s.2-.4.2-.7c0-.3.1-.5.1-.8s0-.5-.1-.8-.1-.5-.2-.7c-.1-.2-.2-.4-.4-.5s-.4-.2-.6-.2-.5.1-.6.2c-.2.1-.3.3-.4.5-.1.2-.2.4-.2.7 0 .3-.1.5-.1.8s0 .5.1.8zM66.3 59.6V69h-1.5v-9.4h1.5zM67.5 64.2c.1-.4.3-.8.6-1.1.2-.3.5-.5.9-.7.3-.2.7-.3 1.2-.3s.8.1 1.2.3.7.4.9.7c.2.3.4.7.6 1.1.1.4.2.9.2 1.5s-.1 1-.2 1.5-.3.8-.6 1.1-.5.6-.9.7-.7.2-1.2.2-.8-.1-1.2-.2c-.3-.2-.6-.4-.9-.7s-.4-.7-.6-1.1-.2-.9-.2-1.5.1-1.1.2-1.5zm1.3 2.3c0 .3.1.5.2.7s.2.4.4.5c.2.1.4.2.6.2s.5-.1.6-.2c.2-.1.3-.3.4-.5s.2-.4.2-.7c0-.3.1-.5.1-.8s0-.5-.1-.8-.1-.5-.2-.7c-.1-.2-.2-.4-.4-.5-.2-.1-.4-.2-.6-.2s-.5.1-.6.2c-.2.1-.3.3-.4.5-.1.2-.2.4-.2.7 0 .3-.1.5-.1.8s.1.5.1.8zM79.1 69.6c-.1.3-.2.7-.4 1s-.5.6-.9.8c-.4.2-.9.3-1.5.3-.3 0-.5 0-.8-.1-.3-.1-.5-.2-.8-.4s-.4-.4-.6-.7-.2-.6-.3-1h1.5c.1.3.2.6.4.7.2.1.4.2.7.2.4 0 .7-.2.9-.5.2-.3.3-.7.3-1.2v-.9c-.2.4-.4.6-.7.8-.3.2-.6.3-.9.3-.4 0-.8-.1-1.1-.3s-.5-.4-.7-.7-.3-.7-.4-1.1-.1-.9-.1-1.3.1-.9.2-1.3.2-.8.4-1.1.4-.6.7-.8c.3-.2.6-.3 1-.3s.7.1.9.2.5.5.7.8v-.9H79v6.4c.1.4.1.7.1 1.1zM77 67.3c.2-.1.3-.2.4-.4.1-.2.2-.4.2-.6.1-.2.1-.5.1-.7 0-.3 0-.6-.1-.8s-.1-.5-.2-.7-.2-.3-.4-.5-.4-.2-.6-.2c-.2 0-.4 0-.5.2s-.3.2-.4.4c-.1.2-.2.4-.2.6-.1.2-.1.5-.1.7s0 .5.1.7.1.5.2.7c.1.2.2.3.4.5s.3.2.6.2c.2 0 .4 0 .5-.1zM82.4 71.1c-.3.2-.7.4-1.2.4h-.5c-.2 0-.3 0-.5-.1v-1.5c.1 0 .3 0 .4.1s.3 0 .4 0c.2 0 .3-.1.4-.3.1-.2.1-.3.1-.6 0-.2 0-.3-.1-.4l-1.9-6.4h1.6l1.2 4.7 1.2-4.7h1.6L82.8 70c.1.5-.1.9-.4 1.1z"/></svg>